<?xml version="1.0" encoding="UTF-8" standalone="no"?>
<!-- Created with Inkscape (http://www.inkscape.org/) -->

<svg
   width="210mm"
   height="297mm"
   viewBox="0 0 210 297"
   version="1.1"
   id="svg65"
   inkscape:version="1.1 (c68e22c387, 2021-05-23)"
   sodipodi:docname="SSSSS.svg"
   xmlns:inkscape="http://www.inkscape.org/namespaces/inkscape"
   xmlns:sodipodi="http://sodipodi.sourceforge.net/DTD/sodipodi-0.dtd"
   xmlns="http://www.w3.org/2000/svg"
   xmlns:svg="http://www.w3.org/2000/svg">
  <sodipodi:namedview
     id="namedview67"
     pagecolor="#ffffff"
     bordercolor="#666666"
     borderopacity="1.0"
     inkscape:pageshadow="2"
     inkscape:pageopacity="0.0"
     inkscape:pagecheckerboard="0"
     inkscape:document-units="mm"
     showgrid="false"
     inkscape:zoom="0.71446409"
     inkscape:cx="121.06977"
     inkscape:cy="518.5705"
     inkscape:window-width="1920"
     inkscape:window-height="991"
     inkscape:window-x="-9"
     inkscape:window-y="-9"
     inkscape:window-maximized="1"
     inkscape:current-layer="layer1" />
  <defs
     id="defs62" />
  <g
     inkscape:label="Layer 1"
     inkscape:groupmode="layer"
     id="layer1">
    <circle
       id="path246"
       style="fill:#000000;stroke:#000000;stroke-width:0.264583"
       cx="52.586033"
       cy="49.253113"
       r="0.049326818" />
    <circle
       id="path248"
       style="fill:#000000;stroke:#000000;stroke-width:0.264583"
       cx="52.586033"
       cy="49.253113"
       r="0.049326818" />
    <circle
       id="path250"
       style="fill:#000000;stroke:#000000;stroke-width:0.264583"
       cx="52.21571"
       cy="49.62344"
       r="0.049326818" />
    <circle
       id="path252"
       style="fill:#000000;stroke:#000000;stroke-width:0.264583"
       cx="52.21571"
       cy="49.62344"
       r="0.049326818" />
    <circle
       id="path1069"
       style="fill:#000000;stroke:#000000;stroke-width:0.264583"
       cx="52.586033"
       cy="50.734413"
       r="0.049326818" />
    <circle
       id="path1071"
       style="fill:#000000;stroke:#000000;stroke-width:0.264583"
       cx="52.586033"
       cy="50.734413"
       r="0.049326818" />
    <circle
       id="path1073"
       style="fill:#000000;stroke:#000000;stroke-width:0.264583"
       cx="49.62344"
       cy="60.362843"
       r="0.049326818" />
    <circle
       id="path1075"
       style="fill:#000000;stroke:#000000;stroke-width:0.264583"
       cx="49.62344"
       cy="60.362843"
       r="0.049326818" />
    <circle
       id="path1077"
       style="fill:#000000;stroke:#000000;stroke-width:0.264583"
       cx="49.62344"
       cy="60.362843"
       r="0.049326818" />
    <circle
       id="path1079"
       style="fill:#000000;stroke:#000000;stroke-width:0.264583"
       cx="49.62344"
       cy="60.362843"
       r="0.049326818" />
    <circle
       id="path1133"
       style="fill:#000000;stroke:#000000;stroke-width:0.264583"
       cx="-94.062347"
       cy="88.507477"
       r="0.049326818" />
    <circle
       id="path1135"
       style="fill:#000000;stroke:#000000;stroke-width:0.264583"
       cx="-94.062347"
       cy="88.507477"
       r="0.049326818" />
    <circle
       id="path1137"
       style="fill:#000000;stroke:#000000;stroke-width:0.264583"
       cx="-83.693268"
       cy="86.655861"
       r="0.049326818" />
    <circle
       id="path1139"
       style="fill:#000000;stroke:#000000;stroke-width:0.264583"
       cx="-83.693268"
       cy="86.655861"
       r="0.049326818" />
    <circle
       id="path1141"
       style="fill:#000000;stroke:#000000;stroke-width:0.264583"
       cx="-57.770573"
       cy="77.768082"
       r="0.049326818" />
    <circle
       id="path1143"
       style="fill:#000000;stroke:#000000;stroke-width:0.264583"
       cx="-57.770573"
       cy="77.768082"
       r="0.049326818" />
    <path
       style="fill:#d45500;stroke:none;stroke-width:0.370324"
       d="m 87.572558,270.32997 -2.193748,-1.05135 -2.13624,-4.77451 -2.13623,-4.7745 -0.0213,-4.58231 -0.0213,-4.58231 2.21225,-5.31473 c 1.21674,-2.9231 3.02536,-6.61034 4.019168,-8.19387 0.9938,-1.58353 2.74995,-4.37896 3.90255,-6.21207 1.1526,-1.8331 2.66169,-3.83285 3.35352,-4.44389 0.89693,-0.79217 1.32081,-1.53603 1.47716,-2.59227 0.30692,-2.07337 -0.62566,-3.01969 -7.41711,-7.52645 -3.913468,-2.59696 -6.177808,-4.38096 -7.521808,-5.92618 -1.05756,-1.21591 -2.88466,-2.88541 -4.06021,-3.71002 -1.17555,-0.8246 -2.95474,-2.46637 -3.95375,-3.64836 -2.82382,-3.34104 -5.41576,-6.03749 -5.80349,-6.03749 -0.19394,0 -1.46127,1.0625 -2.8163,2.36112 -1.35502,1.29861 -2.99791,2.63225 -3.65086,2.96364 -1.10869,0.56268 -1.30459,0.55734 -2.9626,-0.0808 -1.49142,-0.57401 -2.51645,-0.65635 -6.40833,-0.51478 l -4.63293,0.16853 -2.49295,-1.3703 c -3.6657,-2.01492 -6.22173,-5.08154 -7.41574,-8.89712 -1.39475,-4.45704 -1.8559,-7.13303 -1.58332,-9.18783 0.21961,-1.65548 0.14621,-1.9426 -0.73049,-2.85768 -0.87325,-0.91148 -1.01415,-1.45492 -1.35473,-5.22529 -0.43128,-4.77454 -1.70691,-8.36065 -5.25113,-14.76224 -1.07128,-1.93495 -2.42276,-4.85125 -3.0033,-6.48067 -0.58054,-1.62943 -1.69655,-4.4315 -2.48002,-6.22683 -1.63305,-3.7421 -2.11966,-6.37893 -3.29303,-17.84425 -1.17167,-11.44873 -0.53632,-21.55955 1.68666,-26.84113 0.67578,-1.60556 0.84652,-2.431984 0.59828,-2.895812 -0.19105,-0.356981 -0.53391,-1.677826 -0.76192,-2.935218 -0.39604,-2.184025 -0.35502,-2.464848 0.91822,-6.285805 0.73987,-2.220356 1.99405,-5.019333 2.81926,-6.291794 1.36168,-2.099712 1.9886,-2.612715 7.46716,-6.110348 3.28937,-2.100008 7.00342,-4.259855 8.25344,-4.799658 1.25003,-0.539798 3.21179,-1.604928 4.35949,-2.366955 l 2.08671,-1.385498 v -3.212473 c 0,-3.081872 0.31123,-5.603515 1.1531,-9.342646 0.28193,-1.252157 0.53672,-1.679403 0.91495,-1.534258 0.28832,0.110638 0.52422,0.03057 0.52422,-0.177925 0,-0.208497 -0.18395,-0.440399 -0.40877,-0.515342 -0.22483,-0.07494 0.59843,-1.247658 1.82944,-2.60604 1.23102,-1.358381 2.42919,-2.82662 2.6626,-3.262754 0.34832,-0.650825 0.64276,-0.752001 1.6426,-0.56443 1.16422,0.218408 1.2818,0.129841 2.65296,-1.998314 0.78912,-1.224766 1.5484,-2.228305 1.68729,-2.230088 0.13888,-0.0019 0.61294,0.502923 1.05345,1.121561 0.79313,1.113853 1.00048,1.148681 2.80724,0.47153 0.22549,-0.08451 0.62066,0.354973 0.87816,0.97663 0.25749,0.621657 0.56382,1.130284 0.68073,1.130284 0.1169,0 0.65623,-0.425069 1.1985,-0.944597 l 0.98594,-0.944597 0.46796,1.129758 c 0.53267,1.285965 0.91707,1.41284 1.45942,0.481692 0.3227,-0.554048 0.37909,-0.500322 0.38872,0.370324 0.006,0.560115 0.14548,1.018392 0.30954,1.018392 0.16405,0 1.44027,-0.958215 2.83606,-2.129364 1.39578,-1.171152 2.99279,-2.501873 3.54889,-2.957163 l 1.01112,-0.827802 0.24908,1.66103 c 0.137,0.913567 0.34419,1.661028 0.46043,1.661028 0.11624,0 0.78138,-0.352301 1.47809,-0.782889 1.53642,-0.949563 1.79998,-0.765712 1.25771,0.877356 -0.53282,1.614466 -2.22633,3.190764 -5.08392,4.732041 -2.00462,1.08122 -2.30221,1.386006 -2.49136,2.551581 -0.14053,0.865965 0.0649,2.192096 0.59402,3.835019 l 0.80883,2.511324 1.68253,-0.260953 c 3.00309,-0.465767 3.02707,-0.456713 3.57389,1.349489 0.27748,0.916553 0.50704,1.841965 0.51013,2.056474 0.003,0.21451 -1.55309,0.765788 -3.4582,1.225063 l -3.46382,0.835048 -0.23981,3.659402 c -0.1319,2.01267 -0.48961,4.846865 -0.79491,6.298213 -0.3053,1.451346 -0.55509,2.692035 -0.55509,2.757091 0,0.432519 5.49882,0.702072 12.77618,0.626287 7.275938,-0.07577 9.108148,0.02193 12.569878,0.670129 5.263412,0.985589 6.697162,0.956958 9.327082,-0.186243 3.74439,-1.627658 4.55922,-2.105435 4.78068,-2.803197 0.1286,-0.405185 2.25278,-1.722599 5.28583,-3.278264 4.06173,-2.083282 6.28311,-3.56095 11.1627,-7.42546 l 6.09188,-4.824611 3.24552,-6.525043 c 3.29201,-6.618496 4.40362,-9.495102 5.98562,-15.489502 l 0.8796,-3.332916 0.27088,2.870012 c 0.14899,1.578507 0.40458,2.870012 0.56799,2.870012 0.1634,0 0.83543,-1.335487 1.4934,-2.967749 0.65797,-1.632262 1.36931,-3.074673 1.58077,-3.205361 0.39517,-0.244232 0.15217,5.95262 -0.29295,7.470563 -0.16239,0.553768 0.0601,0.906018 0.87728,1.388716 0.60217,0.355711 1.1676,0.646748 1.25653,0.646748 0.0889,0 0.36796,-0.958213 0.62009,-2.129364 0.92874,-4.314087 1.11275,-4.775161 2.082,-5.216777 0.51986,-0.236868 1.04539,-0.430667 1.16784,-0.430667 0.62561,0 -0.34992,6.090084 -1.53782,9.60035 -0.7185,2.123178 -1.23063,3.936061 -1.13807,4.028626 0.0926,0.09256 0.9808,-0.353076 1.97385,-0.990315 1.04121,-0.668139 2.29743,-1.15861 2.9675,-1.15861 1.11412,0 1.1461,0.04194 0.77671,1.018392 -0.21189,0.560115 -2.00735,2.684848 -3.9899,4.721632 -3.79051,3.894185 -6.18474,6.765282 -5.8886,7.061425 0.097,0.09695 1.20919,-0.06469 2.47164,-0.359196 2.25241,-0.525452 2.30091,-0.520409 2.59158,0.269552 0.94388,2.565231 0.92294,2.618923 -1.73655,4.452599 -2.42595,1.672656 -2.57734,1.722189 -5.2702,1.724221 -1.82475,0.0013 -3.7197,0.290912 -5.54336,0.846992 l -2.77086,0.844897 -4.76261,5.170778 c -2.61944,2.843927 -6.36565,7.133857 -8.32493,9.533176 -3.04741,3.731858 -4.11338,4.736885 -7.37478,6.953205 -3.68855,2.506604 -3.96897,2.626336 -8.62875,3.684222 -3.44715,0.782587 -7.367821,1.303996 -13.791882,1.834179 -4.93658,0.407413 -11.008998,1.018667 -13.494268,1.358342 l -4.51869,0.617579 -1.96198,1.889924 c -1.57194,1.5142 -2.56074,3.06789 -4.97369,7.81511 -1.65643,3.25886 -3.38814,7.09172 -3.84826,8.51746 -0.46011,1.42575 -1.56437,4.05007 -2.45391,5.83183 -1.50431,3.01315 -1.60224,3.38844 -1.40114,5.3697 0.2978,2.93396 1.7089,9.72179 2.02103,9.72179 0.14043,0 0.36085,-1.13541 0.48983,-2.52313 0.3004,-3.23217 1.29489,-6.10088 3.01102,-8.68556 1.44927,-2.18276 2.00374,-2.48025 4.63764,-2.48826 1.92377,-0.006 0.84834,1.14016 9.90889,-10.55928 7.189548,-9.28353 11.925078,-13.917555 14.146578,-13.843352 2.70948,0.0905 3.23573,0.423976 5.774862,3.659432 3.12357,3.98017 7.3514,12.65159 9.46325,19.40946 0.83305,2.66573 2.51673,7.26314 3.7415,10.21648 1.22478,2.95333 3.37534,8.49713 4.77902,12.31955 1.42485,3.88004 3.93866,9.68696 5.69112,13.14651 3.11099,6.14141 3.15883,6.20927 5.36664,7.61178 l 2.22767,1.41513 1.57586,-1.29346 c 1.02513,-0.84143 2.33754,-2.63019 3.75534,-5.11837 1.1987,-2.10371 3.66447,-5.85961 5.47947,-8.34645 1.81501,-2.48685 6.06539,-8.98604 9.4453,-14.44264 3.37991,-5.45661 6.766,-10.83766 7.52463,-11.95789 0.75863,-1.12023 2.94495,-4.61979 4.85848,-7.77681 4.53681,-7.48498 8.39517,-12.27762 11.74197,-14.58519 2.27813,-1.57074 2.89527,-1.81128 5.48066,-2.13623 l 2.91345,-0.36618 1.63453,1.78538 c 2.36841,2.587 5.08559,6.88956 5.38178,8.52189 0.14079,0.77585 0.68462,2.82712 1.20851,4.55839 0.91093,3.0103 0.94195,3.40648 0.71022,9.07294 -0.23895,5.84317 -0.29053,6.12526 -3.72647,20.37926 l -3.48417,14.45407 -5.18895,12.57959 c -8.99343,21.80279 -15.27524,33.76404 -25.92997,49.3735 -6.96017,10.19684 -12.86743,17.92844 -19.28088,25.2354 -4.23884,4.82938 -4.75379,5.26975 -15.14389,12.95063 -11.80767,8.72884 -11.67291,8.65705 -20.19341,10.75772 -2.416152,0.59566 -5.832392,1.1679 -7.591642,1.27162 -2.9569,0.17433 -3.36446,0.10911 -5.39239,-0.86278 z m 18.327412,-60.59413 c 3.93778,-5.44409 10.09898,-14.76503 14.01897,-21.20853 l 3.44024,-5.65491 -1.48405,-1.93673 c -1.6284,-2.12512 -2.79688,-5.41273 -3.21293,-9.03981 -0.23082,-2.0123 -0.83522,-3.32077 -5.00228,-10.82953 -4.89552,-8.8214 -6.77793,-11.56575 -12.06582,-17.5907 -1.703701,-1.94118 -3.376141,-4.07471 -3.716542,-4.7412 -1.02887,-2.01452 -5.01989,-8.0628 -5.32031,-8.0628 -0.15436,0 -0.54451,1.95809 -0.86699,4.35131 -0.38916,2.88811 -0.9192,5.09847 -1.57626,6.57325 -1.59178,3.57278 -4.560118,11.56476 -5.171168,13.92287 l -0.56325,2.17365 1.13814,2.25464 1.138138,2.25465 -0.643298,4.3249 c -0.61528,4.13645 -0.70081,4.37821 -1.96287,5.54827 -1.45652,1.35036 -6.02345,3.77601 -7.10933,3.77601 -0.37999,0 -0.69089,0.0929 -0.69089,0.20641 0,0.11352 1.88899,2.83678 4.19776,6.05167 2.88195,4.01305 4.95862,7.40172 6.625098,10.81074 3.59404,7.35209 6.34145,11.31668 11.333401,16.35439 2.372281,2.39401 4.426271,4.31044 4.564431,4.25873 0.13816,-0.0517 1.45658,-1.76049 2.92981,-3.79728 z"
       id="path1546" />
  </g>
</svg>
